<?xml version="1.0" encoding="UTF-8"?>
<svg width="22px" height="22px" viewBox="0 0 22 22" version="1.1" xmlns="http://www.w3.org/2000/svg" xmlns:xlink="http://www.w3.org/1999/xlink">
    <title>6618C28C-01F3-4535-BAD9-3AF1487DC081</title>
    <g id="Absätze" stroke="none" stroke-width="1" fill="none" fill-rule="evenodd">
        <g id="absätze-2.2" transform="translate(-1085.000000, -44.000000)" fill="#2B3335" fill-rule="nonzero">
            <g id="magnifying-glass-copy" transform="translate(1096.000000, 55.000000) scale(-1, 1) translate(-1096.000000, -55.000000) translate(1085.000000, 44.000000)">
                <path d="M12.9790547,0 C8.00490625,0 3.95810937,4.04679688 3.95810937,9.02094531 C3.95810937,11.199332 4.73429688,13.1997852 6.0245625,14.7604531 L0,20.7850156 L1.21498438,22 L7.23954688,15.9754375 C8.80021484,17.2657031 10.800668,18.0418906 12.9790547,18.0418906 C17.9532031,18.0418906 22,13.9950938 22,9.02094531 C22,4.04679688 17.9532461,0 12.9790547,0 Z M12.9790547,16.3236133 C8.95236719,16.3236133 5.67638672,13.0476328 5.67638672,9.02094531 C5.67638672,4.99425781 8.95236719,1.71827734 12.9790547,1.71827734 C17.0057422,1.71827734 20.2817227,4.99425781 20.2817227,9.02094531 C20.2817227,13.0476328 17.0057422,16.3236133 12.9790547,16.3236133 Z" id="search"></path>
            </g>
        </g>
    </g>
</svg>