<?xml version="1.0" encoding="UTF-8"?>
<svg width="24px" height="22px" viewBox="0 0 24 22" version="1.1" xmlns="http://www.w3.org/2000/svg" xmlns:xlink="http://www.w3.org/1999/xlink">
    <title>B6D6D34B-758C-45AE-90EE-21BC3A9A263D</title>
    <defs>
        <filter color-interpolation-filters="auto" id="filter-1">
            <feColorMatrix in="SourceGraphic" type="matrix" values="0 0 0 0 0.749020 0 0 0 0 0.015686 0 0 0 0 0.215686 0 0 0 1.000000 0"></feColorMatrix>
        </filter>
    </defs>
    <g id="Liste" stroke="none" stroke-width="1" fill="none" fill-rule="evenodd">
        <g id="calendar" transform="translate(-856.000000, -789.000000)" filter="url(#filter-1)">
            <g transform="translate(856.000000, 789.000000)">
                <path d="M21.5118055,1.87138264 L20.0051664,1.87138264 L20.0051664,0.643086817 C20.0051664,0.289389068 19.7238438,0 19.380005,0 C19.0361662,0 18.7548435,0.289389068 18.7548435,0.643086817 L18.7548435,1.87138264 L12.6282613,1.87138264 L12.6282613,0.643086817 C12.6282613,0.289389068 12.3469386,0 12.0030998,0 C11.6592611,0 11.3779384,0.289389068 11.3779384,0.643086817 L11.3779384,1.87138264 L5.18884004,1.87138264 L5.18884004,0.643086817 C5.18884004,0.289389068 4.90751739,0 4.56367859,0 C4.21983979,0 3.93851714,0.289389068 3.93851714,0.643086817 L3.93851714,1.87138264 L2.49439419,1.87138264 C1.119039,1.87138264 0,3.06109325 0,4.47588424 L0,19.4276527 C0,20.8488746 1.11278738,22 2.49439419,22 L21.5055539,22 C22.8871607,22 23.9999741,20.8488746 23.9999741,19.4340836 L23.9999741,4.47588424 C24.0061997,3.06109325 22.8871607,1.87138264 21.5118055,1.87138264 Z M3.93851714,3.15755627 L3.93851714,4.09003215 C3.93851714,4.4437299 4.21983979,4.73311897 4.56367859,4.73311897 C4.90751739,4.73311897 5.18884004,4.4437299 5.18884004,4.09003215 L5.18884004,3.15755627 L11.3779384,3.15755627 L11.3779384,4.09003215 C11.3779384,4.4437299 11.6592611,4.73311897 12.0030998,4.73311897 C12.3469386,4.73311897 12.6282613,4.4437299 12.6282613,4.09003215 L12.6282613,3.15755627 L18.7548435,3.15755627 L18.7548435,4.09003215 C18.7548435,4.4437299 19.0361662,4.73311897 19.380005,4.73311897 C19.7238438,4.73311897 20.0051664,4.4437299 20.0051664,4.09003215 L20.0051664,3.15755627 L21.5118055,3.15755627 C22.2057347,3.15755627 22.7558768,3.76848875 22.7558768,4.47588424 L22.7558768,19.4276527 C22.7558768,20.1350482 22.2057347,20.7073955 21.5180571,20.7138264 L2.49439419,20.7138264 C1.80671659,20.7138264 1.2503229,20.1414791 1.2503229,19.4340836 L1.2503229,4.47588424 C1.2503229,3.76205788 1.80671659,3.15755627 2.49439419,3.15755627 L3.93851714,3.15755627 Z M10.4666667,17 L9.53333333,17 C9.24,17 9,17.225 9,17.5 C9,17.775 9.24,18 9.53333333,18 L10.4666667,18 C10.76,18 11,17.775 11,17.5 C11,17.225 10.76,17 10.4666667,17 Z M5.472,17 L4.53333333,17 C4.24,17 4,17.225 4,17.5 C4,17.775 4.24,18 4.53333333,18 L5.46666667,18 C5.76,18 6,17.775 6,17.5 C6,17.225 5.76533333,17 5.472,17 Z M14.4666667,17 L13.5333333,17 C13.24,17 13,17.225 13,17.5 C13,17.775 13.24,18 13.5333333,18 L14.4666667,18 C14.76,18 15,17.775 15,17.5 C15,17.225 14.7653333,17 14.4666667,17 Z M10.4666667,12 L9.53333333,12 C9.24,12 9,12.225 9,12.5 C9,12.775 9.24,13 9.53333333,13 L10.4666667,13 C10.76,13 11,12.775 11,12.5 C11,12.225 10.76,12 10.4666667,12 Z M5.472,12 L4.53333333,12 C4.24,12 4,12.225 4,12.5 C4,12.775 4.24,13 4.53333333,13 L5.46666667,13 C5.76,13 6,12.775 6,12.5 C6,12.225 5.76533333,12 5.472,12 Z M14.4666667,12 L13.5333333,12 C13.24,12 13,12.225 13,12.5 C13,12.775 13.24,13 13.5333333,13 L14.4666667,13 C14.76,13 15,12.775 15,12.5 C15,12.225 14.7653333,12 14.4666667,12 Z M19.4666667,12 L18.5333333,12 C18.24,12 18,12.225 18,12.5 C18,12.775 18.24,13 18.5333333,13 L19.4666667,13 C19.76,13 20,12.775 20,12.5 C20,12.225 19.76,12 19.4666667,12 Z M10.4666667,8 L9.53333333,8 C9.24,8 9,8.225 9,8.5 C9,8.775 9.24,9 9.53333333,9 L10.4666667,9 C10.76,9 11,8.775 11,8.5 C11,8.225 10.76,8 10.4666667,8 Z M14.4666667,8 L13.5333333,8 C13.24,8 13,8.225 13,8.5 C13,8.775 13.24,9 13.5333333,9 L14.4666667,9 C14.76,9 15,8.775 15,8.5 C15,8.225 14.7653333,8 14.4666667,8 Z M19.4666667,8 L18.5333333,8 C18.24,8 18,8.225 18,8.5 C18,8.775 18.24,9 18.5333333,9 L19.4666667,9 C19.76,9 20,8.775 20,8.5 C20,8.225 19.76,8 19.4666667,8 Z" id="Shape" fill="#000000" fill-rule="nonzero"></path>
            </g>
        </g>
    </g>
</svg>