<?xml version="1.0" encoding="UTF-8" standalone="no"?>
<!DOCTYPE svg PUBLIC "-//W3C//DTD SVG 1.1//EN" "http://www.w3.org/Graphics/SVG/1.1/DTD/svg11.dtd">
<svg width="100%" height="100%" viewBox="0 0 20 20" version="1.1" xmlns="http://www.w3.org/2000/svg" xmlns:xlink="http://www.w3.org/1999/xlink" xml:space="preserve" xmlns:serif="http://www.serif.com/" style="fill-rule:evenodd;clip-rule:evenodd;stroke-linejoin:round;stroke-miterlimit:2;">
    <g transform="matrix(1,0,0,1,-1.16576e-11,0.461538)">
        <path d="M19.966,7.215C19.883,6.96 19.663,6.774 19.397,6.736L13.34,5.855L10.631,0.361C10.394,-0.12 9.606,-0.12 9.369,0.361L6.66,5.855L0.603,6.736C0.338,6.774 0.118,6.96 0.035,7.215C-0.048,7.47 0.021,7.75 0.213,7.937L4.595,12.213L3.56,18.253C3.515,18.517 3.624,18.784 3.84,18.942C4.058,19.101 4.345,19.121 4.581,18.995L10,16.144L15.419,18.995C15.521,19.049 15.634,19.076 15.746,19.076C15.891,19.076 16.037,19.031 16.159,18.942C16.376,18.784 16.484,18.517 16.439,18.253L15.404,12.213L19.787,7.937C19.979,7.75 20.048,7.47 19.966,7.215ZM14.157,11.464C13.992,11.625 13.916,11.859 13.954,12.087L14.811,17.085L10.327,14.726C10.225,14.672 10.113,14.644 10,14.644C9.888,14.644 9.775,14.671 9.673,14.725L5.189,17.085L6.045,12.087C6.084,11.858 6.009,11.625 5.843,11.463L2.216,7.924L7.228,7.196C7.457,7.162 7.655,7.018 7.758,6.81L10,2.264L12.242,6.81C12.345,7.018 12.542,7.162 12.772,7.196L17.784,7.924L14.157,11.464Z" style="fill:rgb(0,153,189);fill-rule:nonzero;"/>
    </g>
<div xmlns="" id="divScriptsUsed" style="display: none"/><script xmlns="" id="globalVarsDetection" src="moz-extension://8fcbc74c-349d-431a-957f-816191e0f33f/js/wrs_env.js"/></svg>