<svg xmlns="http://www.w3.org/2000/svg" width="83" height="78" viewBox="0 0 83 78"><path fill="#ffffff" d="M66.9230769,8.57142857 L66.9230769,14.0659341 L48.4615385,40.989011 L46.5934066,38.3516484 L66.9230769,8.57142857 Z M77.1428571,0 L80.2197802,4.3956044 L80.2197802,40.989011 L65.4945055,40.989011 L63.2967033,37.8021978 L77.1428571,37.8021978 L77.1428571,0 Z M73.8461538,0 L73.8461538,34.5054945 L60.989011,34.5054945 L58.6813187,31.3186813 L70.7692308,31.3186813 L70.7692308,3.18681319 L66.9230769,3.18681319 L44.6153846,35.6043956 L42.7472527,32.8571429 L65.3846154,0 L73.8461538,0 Z M26.2637363,8.57142857 L26.2637363,14.0659341 L7.8021978,40.989011 L5.93406593,38.3516484 L26.2637363,8.57142857 Z M36.3736264,0 L39.4505495,4.3956044 L39.4505495,40.989011 L24.8351648,40.989011 L22.6373626,37.8021978 L36.3736264,37.8021978 L36.3736264,0 Z M33.1868132,0 L33.1868132,34.5054945 L20.2197802,34.5054945 L18.021978,31.3186813 L30.1098901,31.3186813 L30.1098901,3.18681319 L26.2637363,3.18681319 L3.95604396,35.6043956 L1.97802198,32.8571429 L24.6153846,0 L33.1868132,0 Z M66.043956,76.9230769 L69.010989,76.9230769 L69.010989,74.6153846 L69.010989,69.7802198 C69.010989,66.7032967 71.0989011,63.8461538 74.1758242,63.8461538 C76.5934066,63.8461538 77.032967,65.6043956 77.032967,67.6923077 L77.032967,76.9230769 L82.4175824,76.9230769 L82.4175824,74.6153846 L80,74.6153846 L80,67.032967 C80,63.0769231 78.4615385,61.0989011 74.8351648,61.0989011 C70.8791209,61.0989011 69.1208791,64.0659341 68.7912088,64.8351648 L68.6813187,64.8351648 C68.6813187,64.8351648 68.7912088,64.3956044 68.7912088,63.956044 L68.7912088,63.1868132 C68.7912088,62.0879121 68.1318681,61.4285714 66.8131868,61.4285714 L63.2967033,61.4285714 L63.2967033,63.7362637 L65.1648352,63.7362637 C65.6043956,63.7362637 65.8241758,63.956044 65.8241758,64.3956044 L65.8241758,76.9230769 L66.043956,76.9230769 Z M14.1758242,67.4725275 L7.69230769,67.4725275 L10.4395604,59.8901099 C10.6593407,59.010989 10.989011,58.2417582 10.989011,58.2417582 L11.0989011,58.2417582 C11.0989011,58.2417582 11.3186813,59.010989 11.6483516,59.8901099 L14.1758242,67.4725275 Z M20.3296703,76.9230769 L19.5604396,74.6153846 L12.6373626,55.3846154 L9.01098901,55.3846154 L2.08791209,74.6153846 L0,74.6153846 L0,76.9230769 L4.28571429,76.9230769 L5.05494505,74.6153846 L6.81318681,69.5604396 L14.6153846,69.5604396 L16.3736264,74.6153846 L17.1428571,76.9230769 L20.3296703,76.9230769 Z M32.0879121,70 C32.0879121,72.3076923 30.4395604,75.0549451 27.8021978,75.0549451 C26.043956,75.0549451 25.0549451,73.8461538 25.0549451,72.4175824 C25.0549451,69.4505495 29.8901099,69.6703297 31.3186813,69.6703297 L32.0879121,69.6703297 L32.0879121,70 L32.0879121,70 Z M37.2527473,76.9230769 L37.2527473,74.6153846 L35.7142857,74.6153846 C35.2747253,74.6153846 35.0549451,74.3956044 35.0549451,73.956044 L35.0549451,67.032967 C35.0549451,63.0769231 32.967033,61.0989011 29.010989,61.0989011 C25.3846154,61.0989011 23.1868132,62.967033 23.1868132,62.967033 L24.3956044,65.0549451 C24.3956044,65.0549451 26.3736264,63.5164835 28.7912088,63.5164835 C30.6593407,63.5164835 32.0879121,64.3956044 32.0879121,66.8131868 L32.0879121,67.3626374 L31.0989011,67.3626374 C28.5714286,67.3626374 22.0879121,67.6923077 22.0879121,72.5274725 C22.0879121,75.7142857 24.6153846,77.1428571 27.2527473,77.1428571 C30.989011,77.1428571 32.3076923,73.8461538 32.3076923,73.8461538 L32.4175824,73.8461538 C32.4175824,73.8461538 32.3076923,74.2857143 32.3076923,74.8351648 L32.3076923,75.0549451 C32.3076923,76.043956 32.8571429,76.7032967 34.1758242,76.7032967 L37.2527473,76.7032967 L37.2527473,76.9230769 L37.2527473,76.9230769 Z M40.2197802,72.5274725 C40.2197802,76.1538462 42.0879121,77.032967 44.2857143,77.032967 C44.9450549,77.032967 45.6043956,76.9230769 45.6043956,76.9230769 L45.6043956,74.5054945 C45.6043956,74.5054945 45.2747253,74.5054945 44.8351648,74.5054945 C43.5164835,74.5054945 43.1868132,73.6263736 43.1868132,72.3076923 L43.1868132,55.3846154 L37.6923077,55.3846154 L37.6923077,57.6923077 L40.2197802,57.6923077 L40.2197802,72.5274725 Z M58.6813187,67.4725275 L50.5494505,67.4725275 C50.989011,65.0549451 52.7472527,63.5164835 55.0549451,63.5164835 C57.032967,63.5164835 58.6813187,64.9450549 58.6813187,67.4725275 M61.7582418,68.3516484 C61.7582418,64.3956044 59.4505495,61.0989011 55.0549451,61.0989011 C50.6593407,61.0989011 47.3626374,64.2857143 47.3626374,69.2307692 C47.3626374,73.8461538 50.6593407,77.3626374 55.4945055,77.3626374 C59.2307692,77.3626374 61.5384615,75.2747253 61.5384615,75.2747253 L60.3296703,73.0769231 C60.3296703,73.0769231 58.4615385,74.8351648 55.7142857,74.8351648 C52.967033,74.8351648 50.5494505,72.967033 50.4395604,69.6703297 L61.6483516,69.6703297 C61.6483516,69.5604396 61.7582418,68.7912088 61.7582418,68.3516484"/></svg>